<?xml version="1.0" standalone="no"?><!DOCTYPE svg PUBLIC "-//W3C//DTD SVG 1.1//EN" "http://www.w3.org/Graphics/SVG/1.1/DTD/svg11.dtd"><svg t="1582180544858" class="icon" viewBox="0 0 1024 1024" version="1.1" xmlns="http://www.w3.org/2000/svg" p-id="2684" xmlns:xlink="http://www.w3.org/1999/xlink" width="200" height="200"><defs><style type="text/css"></style></defs><path d="M515.775995 704.0004a349.823563 349.823563 0 0 1-248.959689-103.103871 352.31956 352.31956 0 0 1 0-497.791378A349.823563 349.823563 0 0 1 515.775995 0.00128c94.079882 0 182.399772 36.607954 248.959689 103.103871a349.759563 349.759563 0 0 1 103.103871 248.959689c0 93.951883-36.607954 182.399772-103.103871 248.831689A349.823563 349.823563 0 0 1 515.775995 704.0004z m0-571.327286c-58.623927 0-113.727858 22.847971-155.135806 64.25592a219.519726 219.519726 0 0 0 0 310.143612 217.983728 217.983728 0 0 0 155.135806 64.25592c58.559927 0 113.663858-22.847971 155.071806-64.25592A217.855728 217.855728 0 0 0 735.103721 352.00084c0-58.559927-22.783972-113.663858-64.25592-155.071806A217.983728 217.983728 0 0 0 515.839995 132.673114z" fill="#FF8FE0" p-id="2685"></path><path d="M467.200056 742.400352V704.0004a63.99992 63.99992 0 1 1 127.99984 0v38.399952h127.99984a63.99992 63.99992 0 0 1 0 127.99984h-127.99984V960.00008a63.99992 63.99992 0 0 1-127.99984 0v-89.599888h-127.99984a63.99992 63.99992 0 0 1 0-127.99984h127.99984z" fill="#FF8FE0" p-id="2686"></path></svg>