<svg t="1576487519579" class="icon" viewBox="0 0 1024 1024" version="1.1" xmlns="http://www.w3.org/2000/svg" p-id="14286" width="200" height="200"><path d="M999.987 535.194a23.142 23.142 0 0 1-16.384-6.81L511.95 56.832 40.448 528.384a23.194 23.194 0 1 1-32.87-32.82L495.565 7.476a23.245 23.245 0 0 1 32.819 0l488.038 488.09a23.194 23.194 0 0 1-16.384 39.629z" p-id="14287"></path><path d="M866.355 1023.232h-258.56a23.194 23.194 0 0 1-23.193-23.245V869.274a72.704 72.704 0 0 0-72.653-72.602 72.704 72.704 0 0 0-72.602 72.602v130.713a23.245 23.245 0 0 1-23.245 23.245h-258.56a23.245 23.245 0 0 1-23.193-23.245V523.571c0-6.041 2.355-11.93 6.656-16.281L495.41 147.098a23.91 23.91 0 0 1 33.127 0L882.944 507.29c4.25 4.352 6.656 10.24 6.656 16.281v476.416a23.194 23.194 0 0 1-23.245 23.245z" p-id="14288"></path></svg>