<?xml version="1.0" standalone="no"?><!DOCTYPE svg PUBLIC "-//W3C//DTD SVG 1.1//EN" "http://www.w3.org/Graphics/SVG/1.1/DTD/svg11.dtd"><svg t="1583598299560" class="icon" viewBox="0 0 1024 1024" version="1.1" xmlns="http://www.w3.org/2000/svg" p-id="11235" xmlns:xlink="http://www.w3.org/1999/xlink" width="200" height="200"><defs><style type="text/css"></style></defs><path d="M885.906286 533.723429a128.731429 128.731429 0 0 0 26.112-77.750858 130.194286 130.194286 0 0 0-65.536-111.104 67.657143 67.657143 0 0 0-34.304-9.289142H572.416l5.997714-122.88a107.081143 107.081143 0 0 0-29.549714-79.433143 106.642286 106.642286 0 0 0-77.897143-33.353143c-51.931429 0-98.011429 34.962286-111.762286 85.065143L273.334857 495.981714h-0.365714v428.032h472.356571a66.486857 66.486857 0 0 0 26.477715-5.412571 128.585143 128.585143 0 0 0 72.923428-155.428572 128.731429 128.731429 0 0 0 20.699429-114.688 128.731429 128.731429 0 0 0 20.48-114.834285z m-773.851429-5.705143v363.958857c0 17.700571 14.262857 32.036571 31.963429 32.036571h64.950857V495.908571H144.091429a31.963429 31.963429 0 0 0-32.036572 32.036572z"  opacity=".65" p-id="11236"></path></svg>