<?xml version="1.0" standalone="no"?><!DOCTYPE svg PUBLIC "-//W3C//DTD SVG 1.1//EN" "http://www.w3.org/Graphics/SVG/1.1/DTD/svg11.dtd"><svg t="1582180517063" class="icon" viewBox="0 0 1024 1024" version="1.1" xmlns="http://www.w3.org/2000/svg" p-id="1374" xmlns:xlink="http://www.w3.org/1999/xlink" width="200" height="200"><defs><style type="text/css"></style></defs><path d="M366.848272 1023.678081A362.75132 362.75132 0 0 1 107.392759 915.198284c-143.103732-144.511729-143.103732-379.519288 0-524.095017a362.75132 362.75132 0 0 1 259.455513-108.479797c98.047816 0 190.143643 38.527928 259.455514 108.479797a370.047306 370.047306 0 0 1 107.519798 262.079508c0 98.943814-38.207928 191.99964-107.519798 262.015509a362.75132 362.75132 0 0 1-259.455514 108.479797z m0-601.406873c-61.055886 0-118.463778 24.063955-161.663697 67.647873a232.767564 232.767564 0 0 0 0 326.463388 226.047576 226.047576 0 0 0 161.663697 67.647873c61.055886 0 118.463778-23.999955 161.663697-67.647873a230.463568 230.463568 0 0 0 66.943875-163.199694c0-61.695884-23.743955-119.679776-66.943875-163.263694a225.983576 225.983576 0 0 0-161.663697-67.647873z" fill="#8FD0FF" p-id="1375"></path><path d="M958.719162 64.19188c15.679971 12.799976 25.663952 32.383939 25.663952 54.271898v240.06355c0 38.591928-30.975942 69.887869-69.11987 69.887869-38.207928 0-69.18387-31.295941-69.18387-69.887869V266.4955L633.343772 481.279098a68.607871 68.607871 0 0 1-97.791816 0 70.271868 70.271868 0 0 1 0-98.815815l202.49562-204.415617h-70.783867c-38.143928 0-69.11987-31.295941-69.119871-69.823869 0-38.591928 30.975942-69.887869 69.119871-69.887869h237.759554c21.18396 0 40.831923 9.791982 53.759899 25.855952z" fill="#8FD0FF" p-id="1376"></path></svg>