<?xml version="1.0" standalone="no"?><!DOCTYPE svg PUBLIC "-//W3C//DTD SVG 1.1//EN" "http://www.w3.org/Graphics/SVG/1.1/DTD/svg11.dtd"><svg t="1583751669298" class="icon" viewBox="0 0 1024 1024" version="1.1" xmlns="http://www.w3.org/2000/svg" p-id="2895" xmlns:xlink="http://www.w3.org/1999/xlink" width="200" height="200"><defs><style type="text/css"></style></defs><path d="M480 256C428.8 256 384 211.2 384 160v-64C384 44.8 428.8 0 480 0S576 44.8 576 96v64C576 211.2 531.2 256 480 256zM480 960c-51.2 0-96-44.8-96-96v-64c0-51.2 44.8-96 96-96s96 44.8 96 96v64c0 51.2-44.8 96-96 96zM704 480c0-51.2 44.8-96 96-96h64c51.2 0 96 44.8 96 96S915.2 576 864 576h-64c-51.2 0-96-44.8-96-96zM0 480C0 428.8 44.8 384 96 384h64C211.2 384 256 428.8 256 480S211.2 576 160 576h-64C44.8 576 0 531.2 0 480zM640 320c-38.4-38.4-38.4-96 0-134.4l44.8-44.8c38.4-38.4 96-38.4 134.4 0 38.4 38.4 38.4 96 0 134.4l-44.8 44.8c-38.4 38.4-96 38.4-134.4 0zM140.8 819.2c-38.4-38.4-38.4-96 0-134.4l44.8-44.8c38.4-38.4 96-38.4 134.4 0 38.4 38.4 38.4 96 0 134.4l-44.8 44.8c-38.4 38.4-96 38.4-134.4 0zM640 640c38.4-38.4 96-38.4 134.4 0l44.8 44.8c38.4 38.4 38.4 96 0 134.4-38.4 38.4-96 38.4-134.4 0l-44.8-44.8c-38.4-38.4-38.4-96 0-134.4zM140.8 140.8c38.4-38.4 96-38.4 134.4 0l44.8 44.8c38.4 38.4 38.4 96 0 134.4-38.4 38.4-96 38.4-134.4 0l-44.8-44.8c-38.4-38.4-38.4-96 0-134.4z" p-id="2896"></path><path d="M480 128C288 128 128 288 128 480S288 832 480 832 832 672 832 480 672 128 480 128z m0 480c-70.4 0-128-57.6-128-128s57.6-128 128-128 128 57.6 128 128-57.6 128-128 128z"  p-id="2897"></path></svg>