<svg t="1576487483503" class="icon" viewBox="0 0 1024 1024" version="1.1" xmlns="http://www.w3.org/2000/svg" p-id="14171" width="200" height="200"><path d="M478.208713 65.036172h67.489401c117.241013 9.9665 230.141776 66.238213 306.12533 156.436367 66.511591 76.967508 104.364631 177.220215 107.40557 278.77121v26.861631c-4.334107 108.748908-48.62841 215.66199-124.839266 293.69741-63.149151 66.196234-147.226519 112.009983-237.063241 129.129346-28.786536 5.766522-58.197642 7.556274-87.429567 9.030668h-21.902955c-45.453341-5.054922-90.952757-13.098565-133.771642-29.680388-119.07172-44.295327-216.777001-142.089686-260.982226-261.206457-15.242581-39.196378-23.153119-80.763051-27.935687-122.375797v-67.534453c8.537156-106.73595 55.289808-210.340858 132.255267-285.073223C271.892748 118.538276 373.576847 73.528277 478.208713 65.036172z m43.535604 37.365671c23.064041 5.275057 47.96186 13.766138 61.456668 34.640088 8.403027 12.606076 12.15659 32.18174 0.223207 43.846865-7.956613 8.359-20.15723 7.464124-30.663317 8.359-2.050842 24.36028-3.168925 48.764586-6.253892 73.03374-1.074056 9.565137-5.495193 19.131297-13.630985 24.761643-15.019374 10.413938-34.775241 10.413938-49.794615 20.782824-8.08767 5.722495-10.056602 18.461676-1.963812 25.120003 18.903995 17.34257 47.912714 17.34257 71.378117 10.548067 0.09215-3.886669 0.310237-11.576047 0.402387-15.464764 19.262355-6.30099 39.732894-7.508151 59.671013-3.975747-8.629306 29.498136-27.402243 54.48401-41.435615 81.434719-7.730334 15.464764-20.737773 29.947622-19.79887 48.228071 1.296239 20.782824 5.586318 41.566673 2.235141 62.441646-1.610572 8.356952-1.384293 20.292383-10.864447 24.089974-26.590302-17.162366-34.054426-51.310989-52.919513-75.447038-22.836738 2.546403-44.023997-8.00064-66.418417-9.520085-12.470923 1.070984-11.844305 17.119363-16.357592 25.65447-3.888716 15.509815-23.153119 7.509175-34.148623 6.972659 3.53138 31.780377 6.614299 63.691811 6.436143 95.695394 0.580543 5.495193-1.787704 16.450766 7.284944 15.64292 20.872926-2.142992 41.701825-13.945318 62.845057-6.795526 17.742909 6.259011 31.243861 20.15723 47.690531 28.964691 22.523429 12.33577 39.018222 32.536004 58.865215 48.406227 8.62521 7.01771 19.885901 9.340906 29.318956 15.063401 5.543315 8.1747 5.451165 19.846993 13.186619 26.412146 7.01771 0.941974 14.124498 0.898971 21.186235 1.788727 21.545619 2.863807 39.017198 27.668453 29.586191 48.54138-7.372998 16.53882-24.132977 26.101909-33.339754 41.479642-17.254515 27.97869-22.439471 61.100357-30.619291 92.430224 10.594141-0.623546 21.902955 0.223207 28.650359 9.655238 129.527637-33.076615 238.859136-134.224199 282.123411-260.712944-16.761003 22.526501-39.60286 49.078919-70.754572 45.228087 1.833779-25.342186-16.045307-43.97997-29.946598-62.835843-14.705041-19.493753-35.621994-34.020638-47.066984-56.007551-12.601981-22.616603-12.334747-51.221911-1.161086-74.329979 15.64292-34.281728 44.739693-59.579887 73.304046-83.045291-3.753564-16.671925-6.079831-35.355784 3.037867-50.820548 7.105764-14.526885 24.583487-26.011807 40.80695-19.307405 15.8221 5.49724 19.97805 23.509431 31.645224 33.790263-31.912458-98.779337-106.154383-182.362167-198.27437-229.470107-54.168653-28.607356-115.044779-42.149263-175.921928-45.279281z m-339.11082 315.867599c-13.319724 26.595421-49.83557 27.845585-70.887677 10.013598-25.030925 121.03758 7.507127 252.843362 88.543556 346.617947 60.96418 72.098933 147.853136 122.421873 241.181307 137.620427 18.144272-0.715696 35.97933-5.989729 54.302782-5.36004-2.636505-23.823764-2.810565-47.78268-2.544355-71.740573-27.223063-20.15723-53.458077-42.238341-75.000624-68.563457-9.207801-11.754204-18.459629-24.583487-20.649719-39.689891-2.592478-23.692706 4.873694-46.930808 4.067897-70.576415-17.029261 0.580543-33.432928 6.036828-50.416114 6.482218-6.169933-2.191115-7.689379-9.476059-10.997552-14.395828-11.576047-23.910794-32.582079-46.390196-60.427664-48.938647-20.874974-2.592478-36.383765-19.89102-43.356424-38.754059-13.810165-36.383765-10.683219-76.027581-13.275697-114.108948-5.140928-17.654855-26.594397-20.426512-40.539716-28.606332z" p-id="14172"></path></svg>