<?xml version="1.0" standalone="no"?><!DOCTYPE svg PUBLIC "-//W3C//DTD SVG 1.1//EN" "http://www.w3.org/Graphics/SVG/1.1/DTD/svg11.dtd"><svg t="1583596807238" class="icon" viewBox="0 0 1024 1024" version="1.1" xmlns="http://www.w3.org/2000/svg" p-id="1765" xmlns:xlink="http://www.w3.org/1999/xlink" width="200" height="200"><defs><style type="text/css"></style></defs><path d="M765.866667 917.333333H226.133333C160 917.333333 106.666667 864 106.666667 797.866667V533.333333c0-66.133333 53.333333-119.466667 119.466666-119.466666h81.066667L448 96c6.4-14.933333 21.333333-25.6 38.4-25.6 87.466667 0 157.866667 70.4 157.866667 155.733333v108.8h172.8c6.4 0 12.8 0 19.2 2.133334 32 4.266667 59.733333 21.333333 78.933333 46.933333 19.2 25.6 25.6 57.6 21.333333 87.466667l-53.333333 341.333333c-6.4 61.866667-57.6 104.533333-117.333333 104.533333z m-388.266667-85.333333h388.266667c17.066667 0 32-12.8 34.133333-27.733333l53.333333-341.333334c2.133333-8.533333 0-17.066667-6.4-23.466666-6.4-6.4-12.8-12.8-21.333333-12.8H601.6c-23.466667 0-42.666667-19.2-42.666667-42.666667v-151.466667c0-29.866667-19.2-55.466667-46.933333-66.133333L375.466667 469.333333v362.666667z m-151.466667-332.8c-19.2 0-34.133333 14.933333-34.133333 34.133333v266.666667c0 19.2 14.933333 34.133333 34.133333 34.133333h66.133334V499.2h-66.133334z" p-id="1766"></path></svg>